<svg class="img-fluid" id="outputsvg" xmlns="http://www.w3.org/2000/svg" style="transform: none; transform-origin: 50% 50%; cursor: move;" width="505" height="494" viewBox="0 0 5050 4940"><g id="l1xrgNquUfeTLNhDjL56UKH" fill="rgb(0,161,133)" style="transform: none;"><g style="transform: none;"><path id="pxWBZhkIM" d="M2385 4929 c-263 -12 -531 -69 -785 -166 -221 -85 -506 -250 -690 -401 -92 -75 -332 -322 -394 -405 -177 -238 -296 -459 -389 -727 -121 -347 -153 -815 -81 -1200 18 -99 57 -249 86 -335 46 -138 157 -374 227 -486 l36 -57 35 29 c19 16 40 29 47 29 11 0 11 4 1 19 -10 17 -7 28 25 74 35 51 70 77 102 77 8 0 14 3 13 8 0 4 1 14 5 22 3 8 8 26 11 40 7 35 42 70 76 77 23 4 34 17 55 60 16 31 37 59 51 65 14 7 33 30 43 53 10 23 33 52 50 64 17 12 31 31 31 42 0 11 11 30 23 43 13 13 33 41 43 61 13 25 36 47 65 63 28 14 53 38 65 60 10 19 31 40 45 46 14 6 27 16 28 21 8 42 19 60 59 96 38 33 53 40 79 37 29 -4 32 -1 35 26 2 22 12 37 34 51 17 11 36 31 43 45 37 84 56 105 92 108 27 2 40 10 50 28 13 25 75 64 102 64 7 0 23 11 35 25 24 27 42 32 43 13 0 -7 5 -3 11 10 6 12 22 25 35 28 12 4 23 10 23 14 0 4 10 11 23 15 15 5 -4 10 -63 15 -106 9 -120 15 -120 49 0 33 53 71 98 71 35 0 52 17 25 26 -73 23 -93 37 -93 66 0 33 39 78 67 78 13 0 8 7 -15 22 -80 50 -57 138 35 138 21 0 24 3 15 12 -7 7 -12 24 -12 38 0 40 27 69 69 76 31 5 39 11 47 37 8 29 13 32 57 35 42 3 47 6 47 27 0 13 5 27 10 30 6 3 10 17 10 30 0 13 7 28 16 33 14 8 12 17 -15 75 -17 36 -31 68 -31 71 0 7 -99 218 -110 236 -6 8 -15 26 -20 39 -10 22 -123 144 -199 214 -19 18 -54 51 -77 75 -24 23 -50 42 -59 42 -25 0 -17 19 11 26 28 7 81 -17 143 -65 18 -14 45 -35 59 -45 l25 -20 -16 25 c-9 14 -27 35 -39 46 -33 31 -40 41 -72 108 -16 33 -36 65 -45 72 -14 11 -12 12 14 13 30 0 40 -7 150 -117 54 -55 62 -66 79 -110 53 -140 72 -187 107 -257 22 -44 43 -85 48 -90 4 -6 39 -69 76 -141 37 -71 76 -140 85 -152 10 -13 21 -44 25 -70 l7 -48 13 33 c12 28 19 32 51 32 27 0 46 -7 64 -25 24 -23 28 -24 40 -10 10 13 7 22 -23 58 -35 42 -52 90 -82 222 -34 149 -123 373 -157 395 -54 34 -88 78 -88 114 0 19 5 36 12 38 8 3 1 21 -20 53 -24 36 -32 60 -32 92 0 24 -4 43 -10 43 -5 0 -10 16 -10 35 0 46 18 45 63 -4 l35 -39 7 25 c9 39 26 23 56 -57 16 -41 33 -82 38 -91 15 -26 58 -160 66 -204 8 -49 55 -214 66 -235 5 -8 23 -60 40 -115 17 -55 37 -107 44 -115 7 -8 29 -49 49 -90 20 -41 52 -92 70 -115 18 -22 38 -50 44 -62 10 -18 18 -21 45 -16 34 5 97 -18 97 -36 0 -5 28 -6 63 -4 55 5 64 3 82 -17 12 -14 20 -36 20 -61 0 -31 3 -38 15 -33 37 16 57 14 90 -8 19 -13 36 -31 38 -40 2 -9 -18 -40 -43 -68 -36 -40 -44 -55 -33 -61 7 -5 14 -4 16 1 6 16 28 11 46 -9 14 -15 22 -17 35 -9 12 7 30 6 66 -7 28 -9 86 -20 130 -25 72 -8 131 -24 176 -50 9 -4 36 -14 60 -20 24 -7 72 -25 106 -41 38 -18 79 -29 105 -29 24 0 56 -7 72 -15 15 -8 37 -15 47 -15 11 0 19 -4 19 -10 0 -5 7 -10 15 -10 9 0 33 -9 55 -20 22 -11 54 -20 72 -20 18 0 49 -9 68 -20 57 -33 73 -38 122 -45 26 -3 63 -17 83 -31 27 -18 49 -24 92 -24 83 0 133 -18 133 -47 0 -21 4 -23 48 -23 26 0 64 -5 85 -11 32 -9 38 -14 34 -31 -6 -22 27 -40 96 -53 36 -7 50 -29 25 -38 -7 -2 10 -15 37 -28 28 -13 52 -27 55 -30 3 -3 29 -14 59 -24 62 -20 126 -73 136 -113 l8 -27 8 35 c13 53 12 423 -1 520 -64 476 -208 830 -496 1217 -62 83 -302 330 -394 405 -184 150 -470 317 -690 401 -339 129 -686 184 -1065 166z"></path><path id="pq6qq8h3H" d="M4625 2279 c-71 -3 -138 -7 -148 -8 -14 -1 -15 -4 -6 -20 15 -23 5 -51 -18 -51 -10 0 -43 8 -73 17 -47 14 -124 17 -520 20 l-465 3 30 -26 c65 -57 92 -84 142 -141 71 -80 183 -223 183 -233 0 -4 20 -20 45 -34 24 -15 49 -35 55 -46 5 -10 23 -21 40 -25 16 -4 30 -12 30 -19 0 -12 108 -66 132 -66 5 0 24 -7 41 -15 18 -8 69 -26 114 -40 45 -14 88 -32 95 -39 8 -7 25 -19 38 -26 14 -7 42 -26 62 -42 20 -16 52 -33 70 -39 115 -38 229 -113 213 -139 -8 -12 -92 -13 -99 -1 -3 4 -25 11 -48 14 -24 3 -77 13 -118 22 -75 17 -129 16 -357 -1 -75 -6 -122 4 -223 48 -131 57 -142 64 -249 165 -36 34 -77 70 -91 81 -57 45 -114 102 -108 108 10 10 51 -3 73 -23 11 -10 40 -34 65 -53 24 -19 69 -59 100 -89 64 -62 124 -105 160 -115 l25 -7 -25 21 c-87 73 -163 161 -200 231 -16 29 -61 73 -155 153 -39 32 -73 67 -77 77 -4 10 -22 22 -40 27 -23 6 -33 14 -31 27 2 25 -20 40 -95 65 -59 21 -65 21 -125 6 -41 -10 -108 -16 -188 -16 l-124 0 -71 -48 c-100 -66 -159 -107 -180 -126 -11 -9 -68 -55 -129 -102 -60 -46 -119 -92 -130 -102 -11 -9 -27 -21 -36 -27 -9 -5 -36 -27 -60 -47 -24 -20 -103 -85 -175 -145 -150 -124 -272 -233 -389 -348 -74 -73 -122 -116 -260 -230 -74 -61 -79 -64 -98 -65 -14 0 -17 5 -12 21 8 25 3 23 -70 -31 -105 -78 -246 -179 -258 -184 -17 -7 44 -59 189 -161 203 -142 521 -293 744 -351 30 -8 71 -19 90 -25 51 -14 230 -46 335 -59 116 -15 444 -15 560 0 105 13 284 45 335 59 19 6 60 17 90 25 288 76 661 270 910 474 92 75 332 322 394 405 175 235 304 475 385 714 29 86 80 288 82 326 2 21 -8 49 -29 81 -18 28 -32 53 -32 58 0 9 -42 72 -64 93 -18 19 -71 36 -101 33 -11 -1 -78 -5 -150 -9z"></path></g></g></svg>